<?xml version="1.0" encoding="UTF-8"?>
<svg id="Light" xmlns="http://www.w3.org/2000/svg" viewBox="0 0 621.09 1385.15">
  <defs>
    <style>
      .cls-1 {
        fill: #fff;
      }
    </style>
  </defs>
  <path d="M355.99,674l-29.99,2.02,3.67,5.9c15.3-2.43,49.6-1.25,65.21-.02-.56-5.22,4.66-7.31,6.15-9.61,4.25-6.46,6.71-17.94,9.51-24.22.74-1.33,1.53-1.74,2.98-2.02,25.22-2.64,53.01,5.7,75.47,16.99.2,1.88-2.1.81-3.2.7-22.83-2.18-45.86,1.01-66.79,10.3,1.3,4.37,3.8,7.38,3.13,12.35,21.68,10.45,42.81,21.87,62.85,35.26,2.05.56,3.84-1.7,5.94-2.2,8.73-2.08,18.37,3.84,19.04,13.19.25,3.58-2.88,7.93-2.45,9.39.8,2.7,11.36,15.98,13.9,20.08,5.41,8.74,10.53,17.7,15.07,26.93,1.88,1.65,5,.72,7.56,1.44,6.99,1.96,10.26,12.19,8.74,18.84-.91,3.98-5.93,5.32-5.78,9.09,7.26,21.46,14.27,43.12,18.07,65.54,17.43.6,19.57,21.4,5.87,28.78-.32,1.4,3.71,26.09,4.51,28.34,1.35,3.81,4.09,2.55,6.94,4.06,12.02,6.34,13.53,23.15,2.53,31.34-10.79,3.62-6.51,9.14-5.89,18.02.33,10.95-.45,21.96.09,32.91.57,1.65,5.78,2.71,7.81,4.19,11.36,8.31,6.79,30.35-8.81,29.58-3,17.29-5.4,34.74-8.45,52.05-.88,5.02-6.07,23.69-4.17,26.81.91,1.5,4.87,2.78,6.69,6.3,5.22,10.1-.87,19.73-11.21,22.29-1.93.48-3.97-1.09-4.87.97-8.52,25.79-21.53,49.37-35.97,72.2,4.45,8.83,4.4,19.56-5.09,24.8-9.8,5.41-15.98-1.36-19.02-.09-17.8,16.07-38.61,28.75-59.87,39.69,2.37,17.42-18.32,26.46-28.34,12.03-24.71,5.78-50.44,9.3-76.11,9.8-7.93,13.09-22.41,11.73-29.36-.82-25.2-1.49-53.93-2.51-78.9-9.21-3.93.12-5.3,4.56-8.73,6.26-8.94,4.43-19.27-1.62-21.48-10.94-.67-2.83.74-6.26-1.68-8.32-19.76-9.99-37.37-23.75-54.86-36.76-16.17,9.94-32.3-6.95-23.18-23.19-13.83-18.07-25.46-37.84-36-58.01l-2.01-.99c-11.37,1.27-20.24-9.87-16.83-20.84,1.32-4.26,6.27-5.54,6.39-9.61l-12.02-56.08c-19.92-1.61-23.59-28.68-4.01-32.95,1.39-1.15,1.46-10.98.82-12.86-.93-2.71-8.63-4.15-8.88-12.2-.22-7.13,4.64-8.67,8.15-12.96l-3.1-55.01c-15.85-3.51-18.93-25.74-4.72-33.7,2.05-1.15,8.36-2.34,8.71-3.51l7.08-38.64c-16.46-7.68-11.71-31.3,7.04-31.22,3.03-15.1,8.64-33.75,12.83-47.97-.12-2.29-3.63-3.98-4.82-6.09-5.74-10.18,2.88-23.27,14.71-21.52,7.07-16.03,20.12-34.13,29.64-47.84-2.63-7.24-2.43-16.35,5.18-20.83,9.69-6.01,14.68,1.48,18.58.66,18.03-11.96,43.41-26.09,64.58-33.99l.03-6.7c-15.81-3.49-32.17-1.63-47.86,1.85,15.1-13.91,41.4-24.66,61.52-23.01,1.29,1.76,1.57,8.8,3.01,10.99,7.15,4.52,7.72,3.55,12.9,11.71,18.35-3.53,37.42-3.11,56.11-2.71,5.39.11,9.32,3.76,12.45-3.47.87-2.72-33.26-2.32-35.5-2.49-13.17.67,38.12-37.81,43.01-37.93,17.34,8.57,34.08,21.38,45.51,36.92ZM393.9,687.1c-21.12-2.82-42.11-2.13-63.27-.95l-1.74,3.38,1.31,1.82c5,1.69,34.07,21.92,36.13,21.51,1.22-.24,2.77-3.03,5.36-3.63,3.91-.91,6.32.83,8.86.7,2.79-.14,11.83-13.49,14.93-15.88l-1.59-6.94ZM300,687.01c-20.75-1.28-45.07-2.98-65.25,2.01-1.06.49-1.76,2.35-1.56,3.34.25,1.25,14.24,13.61,15.86,14.17,2.78.96,13.44-6.84,18.42,2.2l32.34-17.89.18-3.83ZM494.99,766.98l-1.13-19.33c-.61-1.79-4.09-1.96-5.83-3.17-9.17-6.42-3.94-14.83-6.97-19.03-19.15-12.65-38.9-24.42-60.06-33.43l65.99,77.57,8-2.6ZM129.12,749.14c1.08,8.28-6.56,22.03,6.84,21.41l70.03-76.54c-21.98,9.59-44.81,19.59-63.6,34.45,2.4,7.61-.83,12.8-3.45,19.52-3.22-1.69-6.62.32-9.82,1.17ZM302.89,695.08l-31.91,17.41-2.75,10.03,34.41,28.39,9.42-4.52-.02-43.72c-.26-1.06-9.49-3.92-9.15-7.59ZM363.83,717.17l-36.84-21.72c-3.7,5.31-9.09,4.1-9.78,11.37,1.56,7.85-.62,33.55.27,39.21.55.91,9.51,5.76,11.21,4.27l35.08-25.49c.49-.85.51-6.91.06-7.63ZM247.9,721.86l-1.39-10.86-17.01-14.96c-5.53,6.15-12.53,5.99-19.52,2.44-21.98,24.31-44.86,46.61-66.5,71.52-2.03,2.4-4.99,5.05-3.49,8.01l39.4-13.1c2.71-1.82.88-5.49,2.69-8.31,4.12-6.42,13.47-4.25,18.91-1.12l46.9-33.63ZM449.11,768.89l32.47,8.08c2.24-.06,3.12-2.15,1.92-3.96l-64.96-75.07c-3.22-2.12-6.19,2.27-11.01,2.11-3.1-.1-7.04-3.34-8.51-2.61l-13.88,15.22c2.28,4.55,2.23,8.47,1.35,13.4l43.84,32.73c8.33-6.33,19.58.4,18.79,10.11ZM251.99,761.01c-.09-1.93,5.52-32.67,3.02-33.52l-4.49-1.51-46.53,35.03h48ZM258.49,761.01h39c1.51-1.61,3.14-4.56,1.61-6.53-5.17-3-31.62-27.94-34.59-28.19-.91-.08-3,1.29-3.35,2.4l-3.75,30.29,1.08,2.04ZM425.99,765.01l-1.04-3.45-41.5-31.58c-10.52,3.73-9.07,1.79-17.48-.59-12,8.96-25.19,16.61-35.81,27.27l2.49,4.2,93.34,4.15ZM502.51,745.27c-5.75-.44-3.28,16.68-3.04,20.76,9.53,3.27,15.81,9.94,14.51,20.49.59,3.28,19.09,12.07,17.59,5.45-4.54-10.88-21.41-39.76-29.06-46.69ZM122.88,768.9l1.04-20.26c-1.03-.57-2.72-2.52-3.94-1.15-1.58,1-14.84,20.99-16.79,24.21-1.61,2.66-11.28,20.03-10.72,21.32,4.38,6.59,10.6-1.88,16.41-2.12-1.14-10.45,2.94-20.01,14-22ZM250.99,766.01h-43.5c-3.5,0-6.55,5.6-4.76,8.7l37.73,56.07,2.34-.99,8.19-63.78ZM297.83,766.18l-41.4.76-7.99,61.08,1.07,2.98c18.39-14.98,31.49-38.31,48.93-55.04,2.87-3.37.96-6.41-.61-9.78ZM424.89,770.11c-27.39-2.04-54.89-2.23-82.44-3.06-2.84-.09-9.13-2.56-10.98-.06-2.45,3.31-.03,7.2,2.48,9.56l56.4,51.38c4.62-5.98,10.62-2.81,16.74-4.57l21.75-43.11-3.94-10.14ZM182.99,770.02l-40.9,13.09c1.64,10.2-5.19,13.97-11.1,20.4,1.73,6.29-1.45,34.22,9.55,25.55,12.34-20.34,32.16-38.05,42.45-59.03ZM480.77,782.23c-2.26-.61-31.94-11.37-33.78-6.7l40.46,54.46c9.27-.37,1.99-23.46,5.62-30.32-10.69-4.13-9.36-10.15-12.29-17.44ZM145.16,839.84l85.34.17c2.73-.49,3.69-4.09,4.45-6.52-4.86-6.54-35.16-56.68-38.57-57.26-4.48.85-4.88,1.29-8.9-1.01-1.77.13-19.21,24.34-21.88,27.88-2.96,3.93-22.55,30.27-22.38,32.23.11,1.22,1.59,3.1,1.94,4.5ZM384.88,837.89c.37-2.5,2.09-5.23.18-7.43l-58.57-55.43c-3.68,4.31-9.25,5.69-14.76,4.73-2.33-.4-6-3.15-7.71-2.31l-49.61,58.04,1.54,4.06c42.87.94,86.1-.74,128.93-1.66ZM417.09,837.91l64.25-.05,1.73-2.37-38.59-54.46c-.96-1.66-10.72-.22-11.32.15-.57.35-3.49,8.57-4.3,10.19-5.68,11.27-12.02,22.23-17.47,33.64-.65,2.67,6.65,8.44,5.71,12.9ZM528.91,811.87l-1.34-11.92-16.55-7.93c-1.53,5.72-8.14,7.16-13.07,8.66l-1.43,27.4,4.83,2.78,27.56-18.98ZM98.15,801.16c.57,3.59-2.26,8.72-.23,11.41,4.65,2.21,24.6,19.45,27.59,19.44,6.77-.56-.06-22.87.02-28.04-5.95-1.93-9.82-3.98-14.02-8.68l-13.36,5.87ZM532.95,865.96l4.88-47.37c-.24-1.05-4.52-3.34-5.51-3.4-2.37-.13-23.47,16.97-27.43,19.28-1.86,2.14.95,4.36.83,6.88-.12,2.38-2.71,4.57-2.73,6.18-.03,2.77,18.6,16.89,20.99,21.01l8.97-2.58ZM121.99,835.02c-7.25-1.21-22.38-17.73-27.75-18.84-2.74-.57-5.45,2.79-8.25,2.86l6.18,39.27,8.49,5.49,19.88-13.81c-1.91-6.58-1.46-8.88,1.44-14.98ZM560,886.01c-1.35-4.37-15.25-63.57-18-64.99l-3.98,46.29c5.75,2.26,3.87,11.17,5.18,13.5.79,1.4,8.91,5.03,8.81,8.19h1.96c-.1-3.15,3.63-2.91,6.02-2.99ZM76.08,874.98c6.71-1.12,3.9-4.44,5.66-8.72,1.06-2.58,4.72-3.86,5.25-6.79l-5.01-37.45c-3.68,9.19-11.96,38.13-12.92,45.89.59.84,7.48,2.74,7.01,7.07ZM369.79,843.3c-126.62,9.57-151.6-25.14-55.46,56.57,4.46-2.99,8.56-4.69,14.11-3.8,3.14.5,5.59,3.79,8.52,2.47,6.39-11.62,80.69-61.98,32.83-55.24ZM417.13,843.14l-5.99,10.58,26.33,53.31,9.87.81c3.79-9.52,42.54-58.31,34.23-63.92l-64.44-.79ZM145.13,845.14c-.35,3.52-4.32,6.29-2.38,9.57,1.1,1.03,35.01,54.58,36.69,52.19l8.55-.35,45.6-57.01c-.3-1.96-.71-4.39-3.08-4.54l-85.38.14ZM310.89,903.16l-59.38-50.89c-4.46,2.65-8.31,4.15-13.03,1.01-14,15.6-36.09,40.85-47.13,57.23-.05,1.09,1.95,3.64,1.76,5.37,38.54-2.41,77.57-2.43,115.94-6.32l1.84-6.4ZM502.99,904c-3.53-7.08-5.53-55.22-14.35-51.87-4.66,7.2-36.9,55.03-36.45,59.23.08.75,2.88,5.49,3.5,5.66l36.69-1.95c1.54-5.56,4.14-10.82,10.61-11.07ZM507,901.01c4.88-6.38,18.82-20.24,14.04-28.56-2.72-2.28-18.59-21.62-23.05-20.44l9.01,48.99ZM125.99,854.02c-4.69-.36-17.64,11.38-21.5,13.99-2.47,2.39-4.78,6.25-2.56,9.55,5.75,2.89,11.84,17.17,18.06,15.46l6-39ZM341.22,909.79c25.56,4.33,55.07,4.74,81.26,6.23,6.64.26,7.58,2.91,11.49-5.47l-27.5-53.59c-.89-1.01-4.71.21-6.84-.02-3.46-.38-5.87-2.22-9.08-2.97l-50.65,48.54c-1,.82.99,6.95,1.32,7.29ZM137.83,855.14l-6.65,2.56c0,5.08-7.49,33.93-6.05,36.18.63.97,8.95,2.92,7.04,9.45l1.47,1.53c6.29.04,37.96,12.69,38.9,5.22l-34.71-54.95ZM78.76,899.77c1.93-4.72,15.33-28.4-.63-20.63,1.14,9.03-2.77,13.85-9.12,19.36,1.18,3.22,8.16,2.88,9.75,1.26ZM101.75,954.77c2.25-1.97,8.89-36.12,12.03-41.45.04-1.69-3.29-4.83-3.47-7.95-.18-3.01,2.76-7.45,2.53-8.72-.2-1.05-12.86-14.79-14.33-15.74-1.64-1.06-5.83-.28-7.01,1.1-.67.78-8.22,17.72-8.37,18.73-.53,2.76,2.46,3.67,3.63,5.98,2.44,4.81.61,9.29-3.82,11.87l14.12,37.38c.24.17,4.24-.83,4.68-1.21ZM533.66,888.35c-2.3-1.53-7.13-2.29-9.66-4.35-2.42,7.88-9.03,14.83-13.95,21.5,5.79,4.63,6.89,12.64,2.1,18.26.48,3.83,10.25,37.6,14.33,42.22,4.79-6.85,14.42-35.96,16.16-42.5-.11-.99-2.61-2.58-3.22-4.42-2.61-7.86,4.48-11.57,4.1-14.1-.56-3.7-6.7-14.5-9.87-16.61ZM552.97,892.05c-6.01.59-9.48-10.22-14.95-5.55l4.97,5.01-2,.98c1.37,1.34,9.88,19.83,11.93,11.89.46-1.79-2.11-8.88.06-12.33ZM67.89,899.12h-5.79s-7.09,36.89-7.09,36.89c2.98-3.5,12.31-15.24,13.44-18.98.48-1.58-1.45-4.17-1.46-6.51-.02-3.67,2.98-7.34.91-11.4ZM169.91,923.88c-.21-2.31-.83-5.26-3.3-5.98-6.4-.21-32.68-9.19-36.58-7.41-3.07,1.41-5.64,7.65-12.02,4.51l-10.9,41.34,5.94,4.28,56.87-36.74ZM557,966c-1.88-5.39,1.02-13.53,5.09-17.39,1.74-1.65,6.75-3.5,7.41-4.58,2.2-3.58-3.58-23.73-2.64-29.39l-8.38-3.62c-.75,2.05.8,3.81.5,6.39-.64,5.39-7.11,7.88-11.87,7.72l-14.16,42.37c.86,7.78,19.61-1.28,24.05-1.51ZM304.8,915.28c-33.99,2.97-68.5,1.98-102.29,4.75-5.75.47-10.44.68-11.31,7.31l39.8,56.23c4.96-.31,9.05-1.79,13.51,1.46l65.57-63.5c1.41-4.87-.26-6.69-5.29-6.25ZM429.86,922.14l-88.25-7.21-3.41,7.42,65.21,76.57,8.5-2.49,22.66-63.39c-1.85-3.71-4.91-6.25-4.71-10.9ZM492.84,919.13l-36.18,2.84-1.23,4.03,62.55,42.58,1.87-2.27-11.33-37.31c-8.56-2.12-11.85-1.37-15.68-9.86ZM78.73,921.28c-1.13-.92-5.36-1.64-6.73-.8l-11.73,19.05c6.54,6.02,9.91,12.17,8.82,21.39l16.27,4.18c1.57-4.35,4.31-5.58,7.39-8.57-3.91-5.09-10.99-32.79-14.02-35.25ZM314.73,925.14c-18.93,17.08-38.79,36.11-56.76,54.35-2.23,2.47-10.63,10.71-8.55,13.6l69.11,6.98,3.49-70.57c-.06-2.05-5.63-4.58-7.29-4.35ZM327.12,928.14l-2.69,72.93,71.56,7.51c2.35-2.55,2.72-5.78.44-8.52l-60.99-73.07c-2.04-1.79-5.76.67-8.33,1.15ZM172.67,928.19l-55.23,35.76c-2.15,2.04-1.8,5.5-1.01,8.12l109.62,18.49.96-2.98-40.63-57.34c-4.93,3.53-11.96-2.15-13.71-2.05ZM512.79,972.21l-58.85-41.75c-.69-1.05-5.55,2.47-5.72,2.76-1.98,3.37,8.79,53.54,9.75,61.35l53.36-14.47c1.19-.9,2.19-6.61,1.45-7.88ZM453,997l-11.12-61.37-2.87-1.61c-1.41,10.26-23.58,58.96-21.87,65.27.37,1.38,4.8,5.56,6.29,5.65l29.57-7.94ZM52.04,974.05c1.12,7.09-1.72,56.83,4.45,55.96,2.85-6.27,31.8-43.57,31.31-46.32-4.51-6.63-3.19-6.06-4.25-13.72l-16.58-5.51c-3.24,5.68-8.1,9.64-14.92,9.59ZM572.96,980.05c-6.82.55-10.84-5.14-15.22-8.84l-18.62,4.93-1.64,12.85c37.89,44.18,39.82,63.84,35.48-8.94ZM224.75,997.26l-108.31-19.96-4.44,7.22,35.13,57.42c6.73-2.07,12.61-1.18,17.51,4l60.96-45.4-.84-3.28ZM472.79,1056.8l41.67-66.83-.44-3.5-54.93,13.63,8.95,56.84c1.39.03,3.61.49,4.75-.15ZM107.85,987.1c-6.2,2.43-10.51.73-16.68.08l-29.66,45.83,5.17,8.81,71.15,10.07,4.75-7.92-34.73-56.87ZM527.99,1054.01l32.03-7.47c1.69-5.2,1.26-10.26,5.86-14.17l-33.38-42.08-4.51,1.73v62ZM522.99,992.01l-4.09.65-41.55,67.85c2.3,11.97,36.5-5.3,45.64-4.5v-64ZM317.88,1006.12l-68.27-7.19-2.33,4.59,62.37,73.38c2.42-.11,6.04-.65,6.36-3.38l1.88-67.41ZM453.99,1002.01l-29.36,7.91-3.52,9.45c55.51,60.45,42.18,49.38,32.88-17.36ZM302.79,1084.8l1.75-5.77-61.17-71.85c-6.47,2.93-9.63,1.71-15.36-1.7-6.47,6.66-58.99,40.89-59.77,45.13-.26,1.39,1.07,4.41.92,6.22l133.63,27.96ZM321.16,1075.85l7.81,2.71c74.87-75.06,105.33-60.5-4.97-72.55l-2.84,69.84ZM418.86,1023.1c-7.25,2.79-12.32,2.69-18.85-1.61-21.08,19.28-42.2,38.59-64.03,57.01-2.6,2.5-7.31,6.74-.8,7.29l119.75-15.85c-.17-2.27,1.53-4.76.6-6.89s-12.4-12.14-15.05-15.03c-7.39-8.05-14.97-16.44-21.62-24.92ZM117.11,1109.91l9.77-3.51,15.73-34.38c-.68-5.1-5.63-6.19-6.06-15.05-24.41-3.87-48.84-8.36-73.54-9.95-1.31,1.28,5.23,8.58,6.48,10.01,14.64,17.88,33.59,34.79,47.63,52.88ZM562.86,1052.15c-2.32-1.5-30.79,7.48-35.76,7.96-.59,21.45.42,42.98-.06,64.44-.05,2.34-2.99,20.51.46,20.44l40.57-86.3c-3.23-.5-4.82-6.29-5.21-6.53ZM110.99,1111l-50.06-56.43-5.94-1.56.13,12.37c.62,1.82,4.1,1.93,5.83,3.17,6.89,4.96,7.4,11.33,7.2,19.3l42.84,23.15ZM520.99,1145.01l1-83.99-40.41,9.88c-1.09.77-.44,3.65-1.04,5.14-.64,1.6-3.14,4.83-3.19,5.49,1.86,5.49,35.76,56.84,43.64,63.49ZM300.86,1090.15l-132.41-27.25-1.51,2.67,1,2.99c18.88,16.71,35.36,38.62,55.09,53.98,8.37-.08,11.17-4.61,19.45,4.3l59.44-29.93-1.07-6.77ZM544.76,1150.78c1.36-6.58,6.46-11.99,13.67-12.83l1.35-1.65,12.21-70.28-39.54,80.94c-.22,5.85,9.92,6.27,12.32,3.82ZM136.2,1122.79c24.39,5.09,55.77,6.77,80.6,8,3.81.09,4.21-2.39,1.74-4.83l-56.03-55.68c-4.73,2.99-10.2,3.89-15.48,1.74l-15.88,37.76c1.51,4.5,5.27,7.14,5.05,13.02ZM454.99,1075l-120.3,16.2c-2.65.99-1.59,4.75-1.73,7.14l55.71,30.53c7.09-6.29,13.69-7.64,22.69-4.06,15.52-14.75,30.54-30.24,44.42-46.46l-.8-3.35ZM419.08,1138.93c108.62,11.13,118.63,44.36,54.38-53.96-4.87-.14-8.59.1-12.98-2.68l-44.06,45.74,2.65,10.9ZM117.91,1131.15c-5.86-1.91-6.15-6.99-6.1-12.45l-44.77-26.25-3.03,1.11,37.98,68.95,6.12-.1,9.8-31.27ZM95.78,1169.79c.51-.3,2.38-3.63,1.49-4.43-8.6-16.49-28.12-52.12-38.26-67.34,2.49,17.62,6.74,40.48,11.46,57.02,1.21,1.58,5.26.75,7.58,1.42,12.11,4.95,3.85,16.74,17.73,13.32ZM314.9,1107.11c-4.48-.28-7.17-2.33-9.93-5.65l-60.01,29.07-3.68,12.99c105.1,139.46,66.5,100.65,73.62-36.41ZM329.48,1102.29c-2.7,3.63-9.35,3.44-9.54,8.16l.52,119.59,4.25,1.8,66.04-81.35c-8.78-8.78-1.15-13.98-5.21-17.54,0,0-56.06-30.67-56.06-30.67ZM215.99,1135.02l-82.27-6.87c-3.48,4.42-7.55,4.05-11.64,6.44l-8.97,29.76c4.07,5.86,11.13,1.73,16.89.15,7.07-1.93,23.57-5.97,29.28-8.71,2.79-1.34,1.54-4.56,4.65-5.38,4.06-1.06,5.06,1.61,8.09,1.19,7.56-1.03,33.42-10.99,41.78-14.34,1.51-.61,2.71.59,2.19-2.25ZM205.95,1228.97l18.81-81.69-5.4-6.07c-8.98,5.58-45.83,9.4-47.36,19.4l29.9,67.77,4.05.59ZM440.15,1215.85c4.47-.18,7.53.62,11.35,2.81,2.54,0,10.87-9.84,13.48-12.16,5.7-6.89,53.33-41.58,46.52-47.5l-92.52-14.52-6.88,9.83,28.05,61.53ZM217.15,1238.85l39.3,2.21c13.71-1.87,29.87,2.63,43.1,1.02,3.84-.47,4.39-3.61,6.2-6.57l-69.21-89.1-6.68,1.18-18.73,82.78,6.01,8.48ZM430.96,1228.97c-.46-4.81,2.95-7.47,4.88-11.27l-29.5-62.53c-7.82.3-9.33-3.07-14.85,2.84-20.94,25.06-41.43,51.55-61.47,77.47.96,14.22,86.04-8.94,100.94-6.51ZM512.99,1222.51c-.62,4.78.45,10.58,0,15.5l3.84-.17c12.64-21.63,27.5-46.35,34.12-70.37-.12-2.43-6.56-6.2-6.08-10.32-9.89-1.15-7.54.93-10.36,6.88-3.14,6.63-10.58,5.05-11.62,6.58-.75,1.1-6.03,24.57-5.9,25.89.32,3.02,5.82,5.42,4.99,11.93-.77,6.06-7.94,5.99-8.98,14.09ZM196.98,1232.01l-30.45-68.04-7.74-2.78-39.57,12.05c-1.24,3.37-2.28,6.5,1.27,8.78l76.49,49.99ZM516.5,1167.03l-60.58,55.45c-4.74,8.15,12.93,11.97,18.11,13.12l27.75-25.19c-3.48-16.15,8.26-11.13,10.99-16.12.52-3.18,8.06-25.27,3.72-27.26ZM118.99,1241l-12.14-53.35c-1.38-2.28-5.55-1.49-8.4-4.6-2.27-2.49-2.41-6.91-3.39-7.6-9.19-2.67-8.93,2.02-13.67,8.61,11.42,17.03,20.78,39.46,34.19,54.87,1,1.15,1.55,2.47,3.42,2.07ZM192.99,1240c.24-1.49-.02-2.36-.93-3.55-21.84-15.87-49.99-35.88-73.15-49.85-17.81-14.47,6.82,47.36,5.09,53.43,7.04-1.87,14.56,1.92,17.19,8.78l51.8-8.8ZM506.8,1235.8l1.86-18.36c-.19-1.17-2.86-2.41-3.99-2.22-1.47.24-16.76,14.42-19.2,16.76-1.1,1.06-6.49,5.88-5.47,7.02l13.51,4.73c1.3-4.1,12.82-7.3,13.29-7.93ZM431.99,1234.02l-97.32,11.97-2.52,8.43,32.56,26.48c1.68.44,6.29-3.44,9.94-3.54,4.44-.12,8.15,4.24,11.89,1.71,13.64-14.79,30.65-27.08,43.96-42.05.77-1,1.94-1.27,1.49-3ZM468.99,1240.02l-13.43-5.08c-3.58,6.89-7.41,6.93-13.43,7.2-1.43.88-9.87,28.01-10.12,31.87l36.99-33.99ZM436.99,1240.02l-3.54.95c-11.88,12.12-24.78,23.25-36.98,35.02-1.61,1.55-10.26,9.24-8.47,11.02l26.32-4.17c4.24-4,.4-10.68,12.56-10.94l10.12-31.87ZM490.88,1257.9l.65-8.95-16.05-6.65-37.49,34.7,52.89-19.1ZM277.82,1285.87l25.44-28.15c1.53-3.16-1.33-6.99-2.2-10.28l-84.06-3.43c-.5,2.75,1.32,3.87,2.98,5.51,13.54,13.31,30.12,24,44.01,37,5.43-2.6,8.2-1.78,13.83-.65ZM194.79,1246.23c-3.23-1.89-45.76,7.78-52.8,8.79l1.29,2.71,60.48,23.12c3.77.38,5.48-5.2,12.06-3.19,5.54,1.69,7.43,8.77,8.8,9.23l35.37,4.11-45.98-40.52c-3.48.7-13.29,7.41-19.22-4.25ZM320.16,1306.85l11.09,6.01,30.57-18.56-.76-9.87-31.71-26.33-9.42,4.52.23,44.23ZM313.83,1262.18l-5.8-1.72-26.93,29.2c2.84,2.92,1.02,8.04,2.4,10.36.61,1.03,18.98,12.75,20.17,12.86l11.39-6.47-1.23-44.22ZM202.86,1286.15l-60.87-22.13c15.42,15.05,34.35,25.88,52.75,36.85l11.25-4.87c-3.49-2.18-2.35-8.59-3.13-9.85ZM489.99,1264.02l-53.77,19.21c-1.44,5.55-6.74,12.43-13.27,10.35-3.44-1.1-4.4-5.51-8.4-5.62-2.33.53-27.68,2.52-26.55,6.54l17.5,10.5c4.97-8.13,11.39-13.5,21.18-9.17,3.15,1.4,6.18,5.37,8.57,5.04,19.25-10.48,38.58-22.13,54.75-36.85ZM258.99,1299l-1.68-2.81c-11.5.62-31.63-9.01-39.26,1.41l4.6,8.48,36.34-7.08ZM403.78,1309.21c-.91-1.59-14.15-6.73-16.51-9.08-2.6-.39-4.72,3.17-7.54,4.11-9.76,3.27-14.2-4.39-16.05-4.1-8.24,6.37-19.71,10.29-28.02,16.04-15.76,11.89,35.96,3.16,40.67,2.67,9.13-1.37,18.17-3.36,27.08-5.73,1.07-.67.86-3.06.37-3.91ZM301.99,1321.01c2.39-4.31-19.68-14.46-21.66-15.77-1.97-.16-3.99,2.1-6.06,2.55-8.9,1.95-10.87-4.45-13.34-4.33l-35.93,9.07c24.97,6.66,51.14,8.58,76.99,8.49Z"/>
  <path d="M324.98,361l-13.48-21.99c-4.82,8.11-10.09,16.09-14.68,24.32-3.53,4.96-8.66,23.72-13.81,23.67-8.87-18.97-22.86-35.45-33.07-53.44,3.67-113.68,24.96-226.59,62.56-333.57,24.38,94.54,41.45,192.77,45.58,290.51.13,6.6-13.07,26.81-16.79,34.29-5.88,11.8-11.71,23.88-16.3,36.21Z"/>
  <path d="M528.99,106.02c-62.73,103.17-105.38,218.37-124.53,337.96l-39.46,29.03c-7.22-36.08-20.63-70.35-36.01-103.59,40.8-103.31,111.64-196.1,200-263.39Z"/>
  <path d="M255.99,481.01c-1.71,1.56-6.87-6.37-7.97-7.52-14.84-16.27-33.29-33.41-50.06-46.94-36.51-106.31-97.76-201.53-171.97-285.52,104.67,56.54,196.31,151.47,254.9,254.47-10.3,27.86-19.92,56.12-24.9,85.52Z"/>
  <path d="M311.49,352.03c24.74,40.47,41.2,86.7,49.53,133.49l-1.03,1.98c-19.81,11.52-35.64,28.55-52.5,43.54l-46.51-45.54c9.09-46.82,23.61-93.79,50.5-133.47Z"/>
  <path d="M243.98,326.01c-17.59-22.45-35.71-44.42-55.41-65.08-18.83-55.33-41.18-109.31-68.57-160.92,52.2,40.87,98.25,93.71,129.06,152.51-2.86,24.42-3.64,49.01-5.08,73.48Z"/>
  <path d="M233.99,468l-46.99-20.99,23.94,65.56c.81,5.88-15.06-8.52-17.64-9.37-4.2-2.58-12.12-5.7-15.35-8.65C132.7,428.1,68.48,373.14,0,331.02c87.97,24.02,170.45,71.7,233.99,136.98Z"/>
  <path d="M589.99,370.02c-38.05,27.75-79.49,56.99-111.51,91.98-34.32,45.56-29.22,30.64-70.99,59.01l19.5-64.99c-21.33,4.84-41.31,14.87-59.99,25.99,60.97-55.03,141.98-93.89,222.99-111.99Z"/>
  <path d="M364,282.01l-6.53-79.01c22.93-47.93,48.95-95.24,84.51-134.99-13.5,47.21-21.61,95.76-29.25,144.24-12.69,14.88-38.03,52.95-48.73,69.76Z"/>
  <path d="M272.96,582.99c-7.11-3.39-13.4-8.39-20.3-12.16-3.8-2.07-22.08-10.05-23.12-11.88-8.28-34.75-18.33-69.19-32.55-101.94,43.53,18.32,85.12,47.49,110.99,87.51-.09,3.8-32.93,30.79-35.02,38.46Z"/>
  <path d="M561.99,267.02c-42.31,43.55-79.43,92.18-106.97,146.52l-43.01,25.48c3.76-23.22,7.56-50.57,14.98-72.51,37.49-39.75,85.4-75.85,135.01-99.48Z"/>
  <path d="M416.98,465.01c-8.71,27.73-16.92,55.61-23.53,83.96-17.67,8.36-34.99,17.16-51.49,27.61-8.39-13.63-26.91-23.78-30.52-39.54,27.8-31.15,66.08-57.32,105.53-72.03Z"/>
  <path d="M358.99,615c-13.28,4.85-26.02,11.56-36.7,20.91l-12.57-5.77-19.23,10.84-34.36-19.57c11.58-27.56,33.11-50.13,55.54-69.29,16.06,17.49,39.16,40.21,47.33,62.88Z"/>
  <path d="M221.98,557.01c-17.63-8.29-37-11.54-55.91-15.58-35.52-36.79-81.71-64.29-127.08-87.41,61.24,11.15,124.92,33.11,175.05,70.44,1.49,2.05,8.93,31.2,7.94,32.55Z"/>
  <path d="M565.99,462.02c-45.86,25.06-89.09,57.79-122.3,98.19,0,0-18.7,7.79-18.7,7.79l11-28.98-34.99,7.99,3.29-16.71c48.55-33.13,103.38-58.18,161.7-68.28Z"/>
  <path d="M414.99,606.01c2.63,2.62-17.71,63.36-23.66,70.07l-28.14-2.28c-8.35-14.45-22.31-24.18-35.18-34.29,24.94-18.4,56.28-29.53,86.98-33.5Z"/>
  <path d="M187.98,418.01c-.67.86-16.38-12.05-17.38-13.11-34.35-50.97-75.7-101.23-124.61-139.88,28.07,10.44,54.69,26.21,79.32,43.17,37.58,24.4,46.88,70.39,62.67,109.82Z"/>
  <path d="M206.9,609.91c-1.5,2.15-20.34-1.75-23.18-3.12-37.13-37.61-93.67-55.89-143.72-69.77,44.57-1.23,94,4.18,134.53,22.95,6.25,7.8,32.52,39.83,32.37,49.94Z"/>
  <path d="M174.99,550.02c31.95,5.64,66.06,17.98,92.09,37.47.93,1.19.75.91.17,2.2-1.72,3.83-7.76,11.11-10.43,15.65-10.61,22.42-2.07,12.08-41.38,3.73-11.87-20.76-25.94-40.09-40.44-59.05Z"/>
  <path d="M425.99,547.02l-18.49,53-42.55,11.56-17.9-30.48c24.29-15.62,50.37-28.34,78.94-34.08Z"/>
  <path d="M551.99,540.02c-38.71,15.37-79.7,35.44-109.25,65.24l-22.75,4.74,2-10.99-7-.49c4.4-6.45,3.4-19.49,10.28-23.72,38.91-18.82,83.4-31.56,126.71-34.78Z"/>
  <path d="M257.79,674.8l-24.4,3.17-1.89-.95-19.5-62c25.98,4.82,51.28,14.44,73,29.52.43,1.85-12.34,11.23-14.53,13.46-4.55,4.64-9.3,11.21-12.68,16.81Z"/>
  <path d="M205.77,618.24l10.06,34.3c-.21,1.21-8.05,2.46-9.41,2.39-35.62-24.67-80.71-32.52-123.43-35.42,39.92-9.17,82.86-11.46,122.78-1.27Z"/>
  <path d="M412.99,640.01l7.24-23.31c33.69-9.21,70.3-11.9,104.76-5.7-30.39,3.59-63.61,13.34-89.49,29.01,0,0-22.5,0-22.5,0Z"/>
  <path class="cls-1" d="M314.9,1107.11c-7.08,137.28,31.39,175.69-73.62,36.41l3.68-12.99,60.01-29.07c2.76,3.33,5.45,5.38,9.93,5.65Z"/>
  <path class="cls-1" d="M329.48,1102.29l56.06,30.67c4.04,3.51-3.54,8.84,5.21,17.54l-66.04,81.35-4.25-1.8-.52-119.59c.19-4.72,6.85-4.54,9.54-8.16Z"/>
  <path class="cls-1" d="M302.79,1084.8l-133.63-27.96c.15-1.82-1.18-4.83-.92-6.22.78-4.24,53.3-38.48,59.77-45.13,5.73,3.41,8.89,4.63,15.36,1.7l61.17,71.85-1.75,5.77Z"/>
  <path class="cls-1" d="M384.88,837.89c-42.83.92-86.05,2.61-128.93,1.66l-1.54-4.06,49.61-58.04c1.7-.84,5.38,1.91,7.71,2.31,5.52.95,11.08-.42,14.76-4.73l58.57,55.43c1.91,2.2.2,4.93-.18,7.43Z"/>
  <path class="cls-1" d="M217.15,1238.85l-6.01-8.48,18.73-82.78,6.68-1.18,69.21,89.1c-1.82,2.97-2.37,6.11-6.2,6.57-13.24,1.61-29.39-2.89-43.1-1.02l-39.3-2.21Z"/>
  <path class="cls-1" d="M430.96,1228.97c-14.88-2.44-99.97,20.73-100.94,6.51,20.03-25.92,40.53-52.42,61.47-77.47,5.52-5.9,7.03-2.54,14.85-2.84l29.5,62.53c-1.94,3.8-5.34,6.46-4.88,11.27Z"/>
  <path class="cls-1" d="M304.8,915.28c5.03-.44,6.69,1.38,5.29,6.25l-65.57,63.5c-4.45-3.25-8.54-1.77-13.51-1.46l-39.8-56.23c.87-6.64,5.56-6.84,11.31-7.31,33.79-2.77,68.31-1.78,102.29-4.75Z"/>
  <path class="cls-1" d="M369.79,843.3c47.87-6.74-26.45,43.63-32.83,55.24-2.94,1.32-5.38-1.97-8.53-2.47-5.55-.88-9.65.81-14.11,3.8-96.07-81.67-71.26-47.01,55.46-56.57Z"/>
  <path class="cls-1" d="M429.86,922.14c-.2,4.65,2.86,7.19,4.71,10.9l-22.66,63.39-8.5,2.49-65.21-76.57,3.41-7.42,88.25,7.21Z"/>
  <path class="cls-1" d="M310.89,903.16l-1.84,6.4c-38.37,3.89-77.4,3.91-115.94,6.32.19-1.73-1.81-4.28-1.76-5.37,11.11-16.45,33.07-41.54,47.13-57.23,4.72,3.14,8.56,1.64,13.03-1.01l59.38,50.89Z"/>
  <path class="cls-1" d="M440.15,1215.85l-28.05-61.53,6.88-9.83,92.52,14.52c6.87,5.85-40.88,40.66-46.52,47.5-2.61,2.33-10.95,12.16-13.49,12.16-3.82-2.19-6.88-2.99-11.35-2.81Z"/>
  <path class="cls-1" d="M224.75,997.26l.84,3.28-60.96,45.4c-4.9-5.19-10.78-6.08-17.51-4l-35.13-57.42,4.44-7.22,108.31,19.96Z"/>
  <path class="cls-1" d="M300.86,1090.15l1.07,6.77-59.44,29.93c-8.24-8.89-11.11-4.39-19.45-4.3-19.73-15.36-36.21-37.27-55.09-53.98l-1-2.99,1.51-2.67,132.41,27.25Z"/>
  <path class="cls-1" d="M418.86,1023.1c6.65,8.49,14.23,16.87,21.62,24.92,2.65,2.89,14.17,13,15.05,15.03.93,2.13-.77,4.63-.6,6.89l-119.75,15.85c-6.51-.55-1.8-4.79.8-7.29,21.82-18.42,42.94-37.74,64.03-57.01,6.53,4.3,11.6,4.41,18.85,1.61Z"/>
  <path class="cls-1" d="M419.08,1138.93l-2.65-10.9,44.06-45.74c4.38,2.77,8.11,2.54,12.98,2.68,64.13,98.22,54.45,65.16-54.38,53.96Z"/>
  <path class="cls-1" d="M172.67,928.19c1.75-.09,8.78,5.58,13.71,2.05l40.63,57.34-.96,2.98-109.62-18.49c-.79-2.63-1.14-6.09,1.01-8.12l55.23-35.76Z"/>
  <path class="cls-1" d="M424.89,770.11l3.94,10.14-21.75,43.11c-6.12,1.76-12.12-1.41-16.74,4.57l-56.4-51.38c-2.51-2.36-4.93-6.26-2.48-9.56,1.85-2.5,8.13-.02,10.98.06,27.55.83,55.05,1.03,82.44,3.06Z"/>
  <path class="cls-1" d="M145.16,839.84c-.35-1.4-1.83-3.28-1.94-4.5-.18-1.96,19.41-28.3,22.38-32.23,2.67-3.54,20.12-27.75,21.88-27.88,4.09,2.36,4.47,1.81,8.9,1.01,3.41.58,33.71,50.71,38.57,57.26-.76,2.43-1.72,6.03-4.45,6.52l-85.34-.17Z"/>
  <path class="cls-1" d="M341.22,909.79c-.33-.34-2.32-6.47-1.32-7.29l50.65-48.54c3.21.76,5.62,2.6,9.08,2.97,2.13.23,5.95-.99,6.84.02l27.5,53.59c-3.92,8.39-4.85,5.73-11.49,5.47-26.17-1.49-55.72-1.9-81.26-6.23Z"/>
  <path class="cls-1" d="M454.99,1075l.8,3.35c-13.89,16.22-28.9,31.71-44.42,46.46-9-3.58-15.6-2.24-22.69,4.06l-55.71-30.53c.14-2.39-.93-6.15,1.73-7.14l120.3-16.2Z"/>
  <path class="cls-1" d="M145.13,845.14l85.38-.14c2.37.15,2.78,2.58,3.08,4.54l-45.6,57.01-8.55.35-3.86-2.98-32.83-49.21c-1.95-3.28,2.03-6.05,2.38-9.57Z"/>
  <path class="cls-1" d="M327.12,928.14c2.57-.48,6.29-2.94,8.33-1.15l60.99,73.07c2.28,2.75,1.9,5.97-.44,8.52l-71.56-7.51,2.69-72.93Z"/>
  <path class="cls-1" d="M247.9,721.86l-46.9,33.63c-5.45-3.13-14.79-5.3-18.91,1.12-1.81,2.82.02,6.49-2.69,8.31l-39.4,13.1c-1.51-2.96,1.46-5.61,3.49-8.01,21.64-24.9,44.52-47.21,66.5-71.52,6.99,3.55,13.99,3.72,19.52-2.44l17.01,14.96,1.39,10.86Z"/>
  <path class="cls-1" d="M107.85,987.1l34.73,56.87-4.75,7.92-71.15-10.07-5.17-8.81,29.66-45.83c6.17.66,10.48,2.35,16.68-.08Z"/>
  <path class="cls-1" d="M449.11,768.89c.79-9.71-10.47-16.44-18.79-10.11l-43.84-32.73c.88-4.93.93-8.85-1.35-13.4l13.88-15.22c1.47-.73,5.41,2.51,8.51,2.61,4.82.16,7.79-4.23,11.01-2.11l64.96,75.07c1.2,1.81.33,3.9-1.92,3.96l-32.47-8.08Z"/>
  <path class="cls-1" d="M314.73,925.14c1.66-.23,7.23,2.31,7.29,4.35l-3.49,70.57-69.11-6.98c-2.09-2.9,6.32-11.13,8.55-13.6,17.97-18.24,37.83-37.27,56.76-54.35Z"/>
  <path class="cls-1" d="M321.16,1075.85l2.84-69.84c110.34,12.04,79.77-2.45,4.97,72.55l-7.81-2.71Z"/>
  <path class="cls-1" d="M136.2,1122.79c.22-5.88-3.54-8.52-5.05-13.02l15.88-37.76c5.28,2.15,10.75,1.26,15.48-1.74l56.03,55.68c2.47,2.45,2.07,4.93-1.74,4.83-24.83-1.23-56.21-2.91-80.6-8Z"/>
  <path class="cls-1" d="M317.88,1006.12l-1.88,67.41c-.32,2.73-3.94,3.27-6.36,3.38l-62.37-73.38,2.33-4.59,68.27,7.19Z"/>
  <path class="cls-1" d="M417.13,843.14l64.44.79c8.34,5.54-30.48,54.48-34.23,63.92l-9.87-.81-26.33-53.31,5.99-10.58Z"/>
  <path class="cls-1" d="M117.11,1109.91c-14.04-18.09-32.98-35-47.63-52.88-1.25-1.43-7.79-8.73-6.48-10.01,24.7,1.59,49.14,6.08,73.54,9.95.46,8.94,5.36,9.89,6.06,15.05,0,0-15.73,34.38-15.73,34.38l-9.77,3.51Z"/>
  <path class="cls-1" d="M431.99,1234.02c.45,1.73-.72,2-1.49,3-13.31,14.98-30.32,27.26-43.96,42.05-3.74,2.53-7.45-1.83-11.89-1.71-3.65.1-8.26,3.98-9.94,3.54l-32.56-26.48,2.52-8.43,97.32-11.97Z"/>
  <path class="cls-1" d="M417.09,837.91c.94-4.46-6.35-10.23-5.71-12.9,5.45-11.41,11.79-22.37,17.47-33.64.82-1.63,3.74-9.85,4.3-10.19.6-.36,10.36-1.81,11.32-.15l38.59,54.46-1.73,2.37-64.25.05Z"/>
  <path class="cls-1" d="M205.95,1228.97l-4.05-.59-29.9-67.77c1.48-9.98,38.43-13.84,47.36-19.4l5.4,6.07-18.81,81.69Z"/>
  <path class="cls-1" d="M192.99,1240l-51.8,8.8c-2.63-6.86-10.15-10.65-17.19-8.78,1.72-6.1-22.89-67.87-5.09-53.43,23.15,13.97,51.31,33.98,73.15,49.85.91,1.19,1.17,2.06.93,3.55Z"/>
  <path class="cls-1" d="M512.79,972.21c.74,1.27-.26,6.98-1.45,7.88l-53.36,14.47c-.96-7.8-11.73-57.98-9.75-61.35.17-.29,5.03-3.81,5.72-2.76l58.85,41.75Z"/>
  <path class="cls-1" d="M196.98,1232.01l-76.49-49.99c-3.54-2.28-2.51-5.41-1.27-8.78l39.57-12.05,7.74,2.78,30.45,68.04Z"/>
  <path class="cls-1" d="M194.79,1246.23c5.98,11.69,15.75,4.92,19.22,4.24,0,0,45.98,40.52,45.98,40.52l-35.37-4.11c-1.37-.46-3.26-7.53-8.8-9.23-6.58-2.01-8.29,3.58-12.06,3.19l-60.48-23.12-1.29-2.71c7.04-1.01,49.56-10.68,52.8-8.79Z"/>
  <path class="cls-1" d="M277.82,1285.87c-5.64-1.13-8.41-1.95-13.83.65-13.89-13-30.47-23.69-44.01-37-1.67-1.64-3.48-2.75-2.98-5.51l84.06,3.43c.88,3.28,3.73,7.12,2.2,10.28l-25.44,28.15Z"/>
  <path class="cls-1" d="M520.99,1145.01c-7.81-6.54-41.84-58.1-43.64-63.49.05-.65,2.54-3.89,3.19-5.49.6-1.49-.05-4.37,1.04-5.14l40.41-9.88-1,83.99Z"/>
  <path class="cls-1" d="M425.99,765.01l-93.34-4.15-2.49-4.2c10.62-10.66,23.81-18.32,35.81-27.27,8.39,2.39,7.04,4.3,17.48.59l41.5,31.58,1.04,3.45Z"/>
  <path class="cls-1" d="M215.99,1135.02c.51,2.83-.68,1.64-2.19,2.25-8.36,3.36-34.23,13.31-41.78,14.34-3.03.41-4.03-2.26-8.09-1.19-3.11.82-1.86,4.04-4.65,5.38-5.71,2.74-22.21,6.78-29.28,8.71-5.76,1.58-12.81,5.71-16.89-.15l8.97-29.76c4.09-2.39,8.16-2.02,11.64-6.44l82.27,6.87Z"/>
  <path class="cls-1" d="M562.86,1052.15c.38.25,1.98,6.03,5.21,6.53l-40.57,86.3c-3.45.07-.51-18.1-.46-20.44.48-21.46-.53-42.99.06-64.44,4.97-.48,33.44-9.46,35.76-7.96Z"/>
  <path class="cls-1" d="M472.79,1056.8c-1.14.64-3.35.19-4.75.15l-8.95-56.84,54.93-13.63.44,3.5-41.67,66.83Z"/>
  <path class="cls-1" d="M502.99,904c-6.47.26-9.06,5.52-10.61,11.07l-36.69,1.95c-.62-.17-3.42-4.91-3.5-5.66-.46-4.2,31.78-52.03,36.45-59.23,8.8-3.41,10.84,44.85,14.35,51.87Z"/>
  <path class="cls-1" d="M250.99,766.01l-8.19,63.78-2.34.99-37.73-56.07c-1.79-3.1,1.26-8.7,4.76-8.7h43.5Z"/>
  <path class="cls-1" d="M522.99,992.01v64c-9.19-.79-43.3,16.48-45.64,4.5l41.55-67.85,4.09-.65Z"/>
  <path class="cls-1" d="M297.83,766.18c1.58,3.38,3.49,6.42.61,9.78-17.44,16.73-30.54,40.06-48.93,55.04l-1.07-2.98,7.99-61.08,41.4-.76Z"/>
  <path class="cls-1" d="M363.83,717.17c.45.73.43,6.78-.06,7.63l-35.08,25.49c-1.7,1.49-10.65-3.36-11.21-4.27-.87-5.78,1.29-31.25-.27-39.21.69-7.28,6.08-6.06,9.78-11.37l36.84,21.72Z"/>
  <path class="cls-1" d="M169.91,923.88l-56.87,36.74-5.94-4.28,10.9-41.34c6.38,3.13,8.95-3.1,12.02-4.51,3.9-1.79,30.19,7.2,36.58,7.41,2.47.72,3.09,3.67,3.3,5.98Z"/>
  <path class="cls-1" d="M533.66,888.35c3.17,2.11,9.31,12.91,9.87,16.61.38,2.53-6.7,6.24-4.1,14.1.61,1.84,3.11,3.43,3.21,4.42-1.77,6.62-11.33,35.55-16.16,42.5-4.04-4.51-13.88-38.49-14.33-42.22,4.79-5.62,3.68-13.64-2.1-18.26,4.91-6.67,11.52-13.62,13.95-21.5,2.53,2.05,7.36,2.82,9.66,4.35Z"/>
  <path class="cls-1" d="M494.99,766.98l-8,2.6-65.99-77.57c21.16,9.01,40.91,20.78,60.06,33.43,3.03,4.2-2.2,12.61,6.97,19.03,1.74,1.22,5.21,1.39,5.83,3.17l1.13,19.33Z"/>
  <path class="cls-1" d="M129.12,749.14c3.19-.85,6.6-2.85,9.82-1.17,2.62-6.71,5.85-11.91,3.45-19.52,18.79-14.86,41.62-24.86,63.6-34.45l-70.03,76.54c-13.4.63-5.75-13.12-6.84-21.41Z"/>
  <path class="cls-1" d="M117.91,1131.15l-9.8,31.27-6.12.1-37.98-68.95,3.03-1.11,44.77,26.25c-.05,5.45.24,10.53,6.1,12.45Z"/>
  <path class="cls-1" d="M302.89,695.08c-.34,3.67,8.89,6.53,9.15,7.59l.02,43.72-9.42,4.52-34.41-28.39,2.75-10.03,31.91-17.41Z"/>
  <path class="cls-1" d="M527.99,1054.01v-62l4.51-1.73,33.38,42.08c-4.6,3.92-4.17,8.98-5.86,14.17l-32.03,7.47Z"/>
  <polygon class="cls-1" points="320.16 1306.85 319.93 1262.62 329.36 1258.11 361.07 1284.44 361.82 1294.31 331.25 1312.87 320.16 1306.85"/>
  <path class="cls-1" d="M516.5,1167.03c4.34,1.97-3.21,24.11-3.72,27.26-2.68,4.97-14.48-.03-10.99,16.12l-27.75,25.19c-5.18-1.14-22.85-4.97-18.11-13.12l60.58-55.45Z"/>
  <path class="cls-1" d="M101.75,954.77c-.44.39-4.44,1.38-4.68,1.21l-14.12-37.38c4.43-2.58,6.27-7.06,3.82-11.87-1.17-2.31-4.16-3.22-3.63-5.98.15-1.02,7.7-17.95,8.37-18.73,1.18-1.39,5.37-2.16,7.01-1.1,1.47.95,14.13,14.69,14.33,15.74.24,1.27-2.7,5.7-2.53,8.72.18,3.12,3.51,6.27,3.47,7.95-3.14,5.33-9.78,39.47-12.03,41.45Z"/>
  <path class="cls-1" d="M492.84,919.13c3.84,8.52,7.12,7.73,15.68,9.86l11.33,37.31-1.87,2.27-62.55-42.58,1.23-4.03,36.18-2.84Z"/>
  <path class="cls-1" d="M137.83,855.14l34.71,54.95c-.9,7.47-32.67-5.19-38.9-5.22l-1.47-1.53c1.91-6.53-6.42-8.48-7.04-9.45-1.45-2.25,6.04-31.1,6.05-36.18l6.65-2.56Z"/>
  <path class="cls-1" d="M453,997l-29.57,7.94c-1.49-.09-5.91-4.27-6.29-5.65-1.72-6.31,20.45-55.01,21.87-65.27l2.87,1.61,11.12,61.37Z"/>
  <path class="cls-1" d="M52.04,974.05c6.82.04,11.69-3.91,14.92-9.59l16.58,5.51c1.07,7.73-.26,7.07,4.25,13.72.5,2.76-28.46,40.06-31.31,46.32-6.14,1-3.34-48.85-4.45-55.96Z"/>
  <path class="cls-1" d="M512.99,1222.51c1.04-8.1,8.21-8.03,8.98-14.09.83-6.51-4.67-8.91-4.99-11.93-.14-1.32,5.15-24.79,5.9-25.89,1.04-1.53,8.49.05,11.62-6.58,2.82-5.95.47-8.03,10.36-6.88-.47,4.12,5.96,7.89,6.08,10.32-6.63,24.05-21.46,48.71-34.12,70.37l-3.84.17c.45-4.92-.62-10.72,0-15.5Z"/>
  <path class="cls-1" d="M572.96,980.05c4.4,73.08,2.23,52.81-35.48,8.94l1.64-12.85,18.62-4.93c4.38,3.7,8.41,9.39,15.22,8.84Z"/>
  <path class="cls-1" d="M182.99,770.02c-10.31,21-30.11,38.68-42.45,59.03-11,8.68-7.82-19.25-9.55-25.55,5.91-6.42,12.75-10.2,11.1-20.4l40.9-13.09Z"/>
  <path class="cls-1" d="M453.99,1002.01c9.44,67.22,22.38,77.44-32.88,17.36l3.52-9.45,29.36-7.91Z"/>
  <path class="cls-1" d="M393.9,687.1l1.59,6.94c-3.1,2.39-12.14,15.75-14.93,15.88-2.55.13-4.95-1.61-8.86-.7-2.59.6-4.14,3.39-5.36,3.63-2.06.41-31.13-19.82-36.13-21.51l-1.31-1.82,1.74-3.38c21.16-1.18,42.15-1.87,63.27.95Z"/>
  <path class="cls-1" d="M532.95,865.96l-8.97,2.58c-2.39-4.12-21.01-18.24-20.99-21.01.02-1.61,2.61-3.8,2.73-6.18.12-2.52-2.69-4.74-.83-6.88,3.96-2.3,25.06-19.41,27.43-19.28.99.05,5.27,2.34,5.51,3.4l-4.88,47.37Z"/>
  <path class="cls-1" d="M557,966c-4.44.22-23.18,9.28-24.05,1.51l14.16-42.37c4.76.15,11.23-2.33,11.87-7.72.3-2.58-1.25-4.34-.5-6.39l8.38,3.62c-.94,5.66,4.84,25.81,2.64,29.39-.66,1.08-5.67,2.93-7.41,4.58-4.06,3.86-6.97,12-5.09,17.39Z"/>
  <path class="cls-1" d="M313.83,1262.18l1.23,44.22-11.39,6.47c-1.19-.11-19.56-11.83-20.17-12.86-1.38-2.32.44-7.44-2.4-10.36l26.93-29.2,5.8,1.72Z"/>
  <path class="cls-1" d="M480.77,782.23c2.94,7.33,1.61,13.31,12.29,17.44-3.63,6.89,3.65,29.93-5.62,30.32l-40.46-54.46c1.75-4.68,31.6,6.1,33.78,6.7Z"/>
  <path class="cls-1" d="M121.99,835.02c-2.9,6.1-3.35,8.4-1.44,14.98l-19.88,13.81-8.49-5.49-6.18-39.27c2.8-.08,5.51-3.43,8.25-2.86,5.36,1.12,20.5,17.63,27.75,18.84Z"/>
  <path class="cls-1" d="M544.76,1150.78c-2.4,2.45-12.54,2.03-12.32-3.82l39.54-80.94-12.21,70.28-1.35,1.65c-7.2.83-12.32,6.26-13.67,12.83Z"/>
  <path class="cls-1" d="M251.99,761.01h-48l46.53-35.03,4.49,1.51c2.5.74-3.12,31.72-3.02,33.52Z"/>
  <path class="cls-1" d="M300,687.01l-.18,3.83-32.34,17.89c-4.98-9.04-15.64-1.25-18.42-2.2-1.63-.56-15.62-12.92-15.86-14.17-.2-.99.5-2.85,1.56-3.34,20.19-4.99,44.48-3.29,65.25-2.01Z"/>
  <path class="cls-1" d="M403.78,1309.21c.49.85.7,3.24-.37,3.91-8.9,2.37-17.95,4.36-27.08,5.73-4.74.5-56.38,9.22-40.67-2.67,8.31-5.75,19.78-9.67,28.02-16.04,1.85-.29,6.28,7.37,16.05,4.1,2.82-.94,4.94-4.5,7.54-4.11,2.36,2.35,15.6,7.49,16.51,9.08Z"/>
  <path class="cls-1" d="M118.99,1241c-1.87.39-2.42-.93-3.42-2.07-13.41-15.41-22.76-37.84-34.19-54.87,4.74-6.59,4.47-11.28,13.67-8.61.98.7,1.12,5.12,3.39,7.6,2.84,3.11,7.02,2.32,8.4,4.6l12.14,53.35Z"/>
  <path class="cls-1" d="M258.49,761.01l-1.08-2.04,3.75-30.29c.36-1.1,2.44-2.47,3.35-2.4,2.97.26,29.41,25.19,34.59,28.19,1.53,1.98-.1,4.92-1.61,6.53h-39Z"/>
  <path class="cls-1" d="M95.78,1169.79c-13.91,3.4-5.6-8.36-17.73-13.33-2.31-.68-6.37.16-7.58-1.42-4.73-16.58-8.96-39.35-11.46-57.02,10.09,15.12,29.72,50.94,38.26,67.34.88.8-.98,4.13-1.49,4.43Z"/>
  <path class="cls-1" d="M78.73,921.28c3.03,2.46,10.1,30.16,14.02,35.25-3.08,2.98-5.82,4.22-7.39,8.57l-16.27-4.18c1.09-9.22-2.28-15.37-8.82-21.39l11.73-19.05c1.37-.84,5.6-.12,6.73.8Z"/>
  <path class="cls-1" d="M528.91,811.87l-27.56,18.98-4.83-2.78,1.43-27.4c4.93-1.5,11.54-2.94,13.07-8.66l16.55,7.93,1.34,11.92Z"/>
  <path class="cls-1" d="M301.99,1321.01c-25.85.09-52.02-1.83-76.99-8.49l35.93-9.07c2.47-.12,4.44,6.28,13.34,4.33,2.06-.45,4.08-2.71,6.06-2.55,2.03,1.34,24,11.42,21.66,15.77Z"/>
  <path class="cls-1" d="M436.99,1240.02l-10.12,31.87c-12.18.28-8.31,6.94-12.56,10.94,0,0-26.32,4.17-26.32,4.17-1.79-1.78,6.86-9.47,8.47-11.02,12.2-11.78,25.1-22.9,36.98-35.02l3.54-.95Z"/>
  <path class="cls-1" d="M560,886.01c-2.39.08-6.12-.16-6.02,2.98h-1.96c.1-3.15-8.02-6.78-8.81-8.18-1.32-2.33.57-11.24-5.18-13.5l3.98-46.29c2.68,1.22,16.71,60.85,18,64.99Z"/>
  <path class="cls-1" d="M110.99,1111l-42.84-23.15c.2-7.98-.32-14.35-7.2-19.3-1.73-1.24-5.21-1.36-5.83-3.17l-.13-12.37,5.94,1.56,50.06,56.43Z"/>
  <path class="cls-1" d="M98.15,801.16l13.36-5.87c4.2,4.7,8.07,6.74,14.02,8.68-.09,5.19,6.75,27.44-.02,28.04-2.99,0-22.94-17.24-27.59-19.44-2.03-2.69.8-7.82.23-11.41Z"/>
  <path class="cls-1" d="M202.86,1286.15c.79,1.26-.36,7.68,3.13,9.85l-11.25,4.87c-18.39-10.96-37.33-21.8-52.75-36.85l60.87,22.13Z"/>
  <polygon class="cls-1" points="490.88 1257.9 437.99 1277 475.48 1242.3 491.53 1248.95 490.88 1257.9"/>
  <path class="cls-1" d="M489.99,1264.02c-16.17,14.72-35.5,26.37-54.75,36.85-2.39.33-5.42-3.65-8.57-5.04-9.79-4.34-16.21,1.03-21.18,9.17l-17.5-10.5c-1.18-4,24.27-6.02,26.55-6.54,4,.11,4.96,4.52,8.4,5.62,6.53,2.08,11.83-4.8,13.27-10.35l53.77-19.21Z"/>
  <path class="cls-1" d="M502.51,745.27c7.71,7.05,24.46,35.72,29.06,46.69,1.5,6.63-17-2.17-17.59-5.45,1.3-10.55-4.99-17.22-14.51-20.49-.24-4.08-2.71-21.19,3.04-20.76Z"/>
  <path class="cls-1" d="M507,901.01l-9.01-48.99c4.39-1.24,20.39,18.21,23.05,20.44,4.77,8.31-9.17,22.18-14.04,28.56Z"/>
  <path class="cls-1" d="M122.88,768.9c-11.06,1.99-15.14,11.55-14,22-5.82.24-12.03,8.71-16.41,2.12-.56-1.29,9.11-18.66,10.72-21.32,1.95-3.22,15.2-23.21,16.79-24.21,1.19-1.35,2.94.55,3.94,1.15l-1.04,20.26Z"/>
  <path class="cls-1" d="M125.99,854.02l-6,39c-6.2,1.73-12.33-12.58-18.06-15.46-2.22-3.29.09-7.16,2.56-9.55,3.9-2.64,16.76-14.31,21.49-14Z"/>
  <path class="cls-1" d="M468.99,1240.02l-36.99,33.99c.25-3.86,8.69-30.98,10.12-31.87,6.01-.25,9.88-.34,13.43-7.2l13.43,5.08Z"/>
  <path class="cls-1" d="M76.08,874.98c.47-4.33-6.42-6.23-7.01-7.07.98-7.87,9.2-36.6,12.92-45.89l5.01,37.45c-.53,2.93-4.19,4.21-5.25,6.79-1.76,4.27,1.05,7.6-5.66,8.72Z"/>
  <path class="cls-1" d="M506.8,1235.8c-.47.63-11.99,3.83-13.29,7.93l-13.51-4.73c-1.02-1.14,4.37-5.96,5.47-7.02,2.44-2.34,17.73-16.51,19.2-16.76,1.13-.19,3.8,1.06,3.99,2.22l-1.86,18.36Z"/>
  <path class="cls-1" d="M258.99,1299l-36.34,7.08-4.6-8.48c7.6-10.42,27.79-.8,39.26-1.41l1.68,2.81Z"/>
  <path class="cls-1" d="M67.89,899.12c2.08,4.07-.93,7.73-.91,11.4.01,2.34,1.94,4.93,1.46,6.51-1.13,3.74-10.46,15.48-13.44,18.98l7.09-36.89h5.79Z"/>
  <path class="cls-1" d="M78.76,899.77c-1.58,1.61-8.57,1.95-9.75-1.26,6.34-5.52,10.26-10.33,9.12-19.36,15.97-7.78,2.54,15.93.63,20.63Z"/>
  <path class="cls-1" d="M552.97,892.05c-2.17,3.45.4,10.54-.06,12.33-2.05,7.94-10.56-10.55-11.93-11.89l2-.98-4.97-5.01c5.48-4.67,8.94,6.13,14.95,5.55Z"/>
</svg>